<svg version="1.0" xmlns="http://www.w3.org/2000/svg"
 width="500" height="500" viewBox="0 0 3209.000000 2163.000000"
 preserveAspectRatio="xMidYMid meet">
<metadata>
Created by potrace 1.16, written by Peter Selinger 2001-2019
</metadata>
<g transform="translate(0.000000,2163.000000) scale(0.100000,-0.100000)"
fill="#000000" stroke="none">
<path d="M19995 18764 c-519 -51 -901 -200 -1157 -450 -149 -145 -249 -314
-327 -549 -97 -293 -123 -600 -75 -896 39 -247 148 -548 270 -752 154 -257
376 -465 664 -622 224 -122 386 -254 504 -411 131 -175 217 -411 241 -665 15
-149 -39 -380 -116 -496 -119 -182 -323 -235 -501 -130 -87 51 -125 125 -135
262 -14 197 93 472 229 588 117 100 148 131 158 163 52 158 -270 299 -512 224
-241 -74 -454 -386 -539 -790 -31 -148 -31 -385 -1 -519 23 -100 70 -218 124
-309 53 -91 180 -211 268 -254 139 -68 327 -108 507 -108 93 0 335 51 498 104
569 188 929 569 1068 1131 139 561 62 1067 -230 1510 -158 239 -427 502 -719
703 -135 92 -217 165 -287 253 -190 237 -303 636 -276 975 19 243 104 407 232
450 42 14 58 15 102 5 142 -32 225 -148 260 -364 38 -232 0 -487 -109 -742
-33 -78 -35 -162 -5 -214 89 -154 347 -159 522 -10 67 58 142 175 172 270 74
234 89 632 34 885 -39 183 -134 408 -220 522 -75 99 -198 177 -333 212 -73 18
-237 31 -311 24z m-870 -698 c46 -35 65 -74 65 -131 0 -52 -5 -63 -65 -155
-138 -209 -180 -541 -111 -884 15 -76 21 -130 16 -150 -38 -171 -276 -173
-325 -2 -38 136 -49 239 -49 461 0 237 13 332 70 505 55 167 161 335 234 373
49 25 119 18 165 -17z m35 -1636 c23 -6 69 -42 132 -103 88 -84 97 -96 103
-139 9 -61 -7 -109 -50 -147 -46 -40 -103 -55 -155 -41 -61 16 -214 169 -230
230 -21 78 17 156 94 191 47 21 59 22 106 9z"/>
<path d="M15650 18265 c-94 -21 -216 -84 -283 -145 -103 -94 -146 -195 -154
-360 -4 -92 26 -376 252 -2340 140 -1229 263 -2264 271 -2300 49 -203 184
-348 384 -411 130 -42 175 -39 1075 65 457 52 856 102 888 111 187 49 277 151
285 325 4 79 2 93 -23 149 -39 86 -114 154 -202 181 -101 31 -208 26 -751 -36
-271 -32 -494 -55 -497 -53 -2 3 -114 972 -249 2154 -136 1183 -252 2182 -260
2220 -21 104 -53 179 -104 248 -61 79 -135 128 -252 168 -79 27 -113 33 -205
35 -72 2 -133 -1 -175 -11z m63 -339 c41 -16 93 -76 101 -113 18 -90 187
-1631 181 -1660 -7 -38 -55 -97 -96 -119 -85 -44 -201 14 -229 114 -5 20 -51
396 -100 835 -99 868 -97 833 -42 899 46 54 119 72 185 44z m245 -2110 c35
-18 78 -64 90 -96 5 -14 17 -91 27 -172 l17 -147 -22 -46 c-49 -102 -165 -129
-257 -59 -43 32 -59 85 -78 246 -15 125 -15 140 0 175 31 73 85 112 158 113
21 0 50 -6 65 -14z"/>
<path d="M14215 18094 c-33 -8 -97 -33 -142 -54 -143 -70 -234 -175 -277 -320
-40 -135 -46 -73 228 -2470 141 -1229 263 -2268 272 -2308 36 -166 143 -310
277 -373 244 -114 572 -55 763 136 94 94 134 205 134 371 0 68 -81 812 -245
2246 -135 1178 -252 2191 -260 2250 -41 287 -154 434 -390 508 -92 29 -274 36
-360 14z m4 -448 c38 -20 88 -79 95 -113 11 -50 167 -1427 168 -1478 2 -130
-122 -211 -236 -155 -91 44 -84 8 -181 857 -82 719 -85 753 -70 790 40 95 143
141 224 99z m233 -1959 c77 -46 88 -79 109 -295 13 -133 13 -134 -10 -178 -28
-52 -76 -85 -136 -92 -35 -3 -53 1 -89 22 -68 40 -83 72 -102 226 -26 216 -10
280 80 321 55 25 103 24 148 -4z"/>
<path d="M11885 17841 c-385 -70 -662 -211 -920 -466 -378 -374 -615 -915
-729 -1665 -116 -759 -109 -1760 19 -2905 28 -245 50 -346 101 -452 89 -186
232 -267 469 -266 91 0 124 5 190 26 192 63 340 195 397 356 26 73 28 193 5
416 -39 393 -57 831 -57 1438 0 351 3 447 13 447 6 1 355 40 775 88 419 48
762 87 762 85 0 -1 18 -112 40 -245 70 -422 137 -915 200 -1463 73 -645 78
-668 157 -756 49 -54 99 -78 192 -91 101 -15 196 1 291 48 129 65 199 149 220
267 28 151 -115 1441 -246 2222 -138 819 -385 1657 -644 2180 -201 404 -442
638 -750 726 -108 30 -347 36 -485 10z m124 -236 c66 -33 100 -106 87 -180
-10 -52 -80 -121 -131 -130 -188 -32 -317 -80 -449 -169 -210 -140 -370 -355
-526 -706 -112 -251 -198 -537 -240 -790 -34 -214 -38 -228 -76 -265 -96 -96
-253 -45 -279 92 -8 45 36 308 85 498 72 284 157 511 291 780 254 507 561 771
1007 865 107 23 194 25 231 5z m189 -585 c128 -58 244 -261 380 -666 74 -219
202 -708 189 -721 -2 -2 -298 -37 -658 -78 -360 -41 -665 -76 -679 -78 -30 -3
-30 -18 1 221 54 421 163 843 267 1032 47 86 113 171 165 213 111 91 240 120
335 77z m-1588 -1894 c66 -43 74 -70 78 -242 3 -137 2 -156 -18 -201 -50 -118
-177 -143 -265 -53 -46 47 -54 83 -54 261 -1 115 1 129 24 176 47 93 146 118
235 59z"/>
<path d="M7948 17389 c-349 -29 -584 -261 -738 -728 -53 -161 -48 -163 -70 19
-35 281 -140 423 -371 501 -233 79 -497 30 -662 -121 -103 -94 -146 -195 -154
-360 -4 -92 26 -377 251 -2340 154 -1338 264 -2266 276 -2313 57 -231 195
-364 422 -411 155 -32 287 -14 435 59 240 118 332 304 303 608 -84 885 -104
2068 -49 2982 47 796 118 1164 255 1315 109 120 233 41 334 -215 91 -229 219
-806 310 -1395 76 -496 184 -1375 240 -1965 38 -396 71 -669 90 -746 47 -192
152 -309 329 -366 25 -8 102 -17 170 -20 119 -6 122 -6 90 -20 -608 -263
-1963 -799 -2475 -979 -51 -18 -52 -19 -64 -73 -7 -31 -51 -195 -98 -366 -46
-170 -117 -429 -157 -575 l-73 -265 -17 40 c-27 63 -152 403 -305 830 -44 121
-101 280 -128 354 l-50 133 -276 277 c-152 152 -276 282 -276 289 0 6 -3 12
-6 12 -3 0 -103 -65 -222 -144 -371 -247 -626 -380 -1162 -610 -173 -74 -452
-195 -620 -269 -168 -73 -399 -173 -515 -222 -115 -48 -211 -89 -212 -89 -2
-1 -16 -191 -33 -422 -88 -1212 -205 -2417 -326 -3354 -44 -344 -69 -514 -193
-1330 -55 -360 -123 -819 -151 -1020 -28 -201 -87 -612 -130 -915 -43 -302
-80 -563 -82 -580 -2 -27 24 -56 287 -316 l290 -287 175 -60 c537 -186 1188
-419 1570 -562 91 -34 287 -106 435 -160 149 -54 347 -128 440 -163 l170 -65
17 386 c22 499 63 1268 88 1637 46 668 114 1586 124 1650 2 15 7 10 20 -20 10
-22 44 -98 76 -170 32 -71 80 -177 108 -235 l51 -105 228 -226 c125 -124 258
-254 295 -289 l68 -63 412 51 c668 83 886 102 1205 102 l191 0 12 53 c60 252
200 731 211 720 12 -14 89 -646 119 -983 63 -697 169 -1349 295 -1807 30 -111
55 -205 55 -208 0 -3 6 -5 12 -5 7 0 137 -125 290 -277 l276 -276 349 230
c191 127 458 302 593 388 135 87 344 222 465 300 121 77 303 192 405 255 135
83 728 467 747 484 1 1 -11 55 -28 119 -117 463 -248 1151 -338 1767 -22 151
-56 363 -76 470 -109 594 -251 1541 -370 2471 -47 370 -54 451 -85 969 -50
851 -67 1252 -95 2260 l-17 575 -274 275 c-151 151 -274 280 -274 285 -1 18
-453 300 -481 300 -25 0 -25 0 17 58 73 99 88 150 88 312 1 77 -5 210 -11 295
-7 85 -17 227 -23 315 -30 439 -141 1336 -226 1825 -104 597 -288 1192 -523
1693 -285 607 -690 874 -1253 826z m340 -250 c138 -34 316 -144 463 -289 151
-149 271 -350 392 -655 91 -231 227 -675 227 -740 0 -67 -69 -148 -136 -161
-62 -12 -129 19 -167 77 -9 14 -41 112 -71 219 -144 516 -303 855 -488 1043
-114 116 -214 167 -361 186 -42 5 -91 17 -109 28 -39 22 -78 93 -78 142 0 51
42 115 92 140 49 24 157 29 236 10z m1128 -2278 c53 -24 80 -60 94 -124 14
-71 50 -354 50 -397 0 -46 -37 -109 -80 -138 -29 -20 -44 -23 -93 -20 -37 3
-67 11 -84 24 -59 44 -64 59 -96 302 l-31 230 25 48 c18 34 37 54 68 71 53 28
92 29 147 4z m604 -3477 c34 -1322 102 -2790 146 -3159 105 -877 287 -2106
414 -2800 16 -88 50 -299 75 -470 60 -404 104 -673 159 -977 41 -224 128 -636
142 -672 7 -17 -254 -194 -548 -373 -291 -175 -644 -401 -1055 -675 l-372
-247 -21 92 c-63 274 -108 639 -195 1567 -64 689 -184 1506 -349 2375 -30 160
-60 342 -66 405 -26 270 -62 584 -81 707 -15 99 -17 138 -9 153 9 17 8 20 -8
20 -16 0 -37 -42 -112 -227 -211 -519 -384 -985 -519 -1398 -51 -154 -105
-305 -120 -335 -57 -109 -134 -342 -196 -590 -15 -58 -31 -121 -36 -141 l-9
-36 -182 -6 c-101 -4 -257 -14 -348 -22 -159 -15 -669 -76 -778 -94 -51 -8
-53 -7 -67 20 -22 41 -166 399 -300 743 -64 164 -188 461 -277 660 -287 648
-538 1246 -538 1285 0 6 -8 11 -18 11 -16 0 -20 -16 -31 -127 -6 -69 -26 -208
-42 -307 -20 -122 -26 -182 -19 -184 8 -3 8 -8 0 -17 -6 -7 -24 -152 -40 -321
-154 -1620 -268 -3169 -296 -4002 -6 -179 -9 -203 -23 -199 -9 2 -203 74 -431
160 -435 163 -775 285 -1299 469 -172 60 -323 113 -336 118 l-22 8 29 204 c44
304 214 1455 327 2208 146 971 214 1487 300 2300 69 644 160 1685 207 2373 4
53 11 97 16 97 19 0 609 257 1628 707 168 75 417 201 515 262 l80 49 19 -51
c303 -835 632 -1648 959 -2377 173 -387 200 -441 207 -433 4 4 26 82 49 173
82 319 211 798 294 1090 46 162 140 499 208 749 122 448 124 454 154 467 17 7
174 67 350 133 671 250 1391 541 2141 865 170 73 310 132 312 130 2 -1 7 -163
12 -360z"/>
<path d="M2870 15763 c-63 -10 -206 -56 -305 -98 -149 -62 -258 -128 -332
-200 -58 -56 -63 -64 -63 -104 0 -36 7 -52 36 -87 80 -98 390 -361 1174 -994
871 -703 1181 -968 1405 -1204 128 -133 132 -136 173 -136 60 0 92 33 92 93 0
81 -34 148 -164 327 -34 47 -122 171 -196 275 -299 426 -747 1032 -1042 1412
-293 377 -535 652 -618 702 -34 20 -92 25 -160 14z"/>
<path d="M29090 15613 c-144 -53 -778 -848 -1614 -2023 -119 -168 -249 -350
-289 -405 -158 -218 -189 -342 -96 -391 54 -27 78 -13 205 122 219 234 511
483 1514 1294 698 564 952 778 1058 895 46 50 52 62 52 99 0 81 -106 172 -314
271 -219 105 -443 165 -516 138z"/>
<path d="M21981 15424 c-124 -33 -229 -122 -272 -229 l-24 -60 -3 -1545 c-3
-1615 -3 -1615 40 -1707 49 -104 163 -186 278 -199 96 -11 497 30 715 72 379
74 748 274 899 488 128 180 173 365 163 678 -6 208 -31 319 -104 468 -40 81
-61 109 -142 191 -83 82 -110 103 -196 146 -55 27 -115 55 -133 61 l-33 11 70
67 c165 155 234 359 235 694 2 379 -84 555 -346 710 -147 88 -293 130 -536
154 -197 21 -536 20 -611 0z m28 -300 c49 -35 51 -54 51 -482 0 -220 -3 -414
-6 -431 -4 -17 -19 -45 -34 -61 -23 -24 -36 -30 -72 -30 -24 0 -54 7 -67 16
-49 35 -51 53 -51 494 0 441 2 459 51 494 30 21 98 21 128 0z m693 -210 c100
-32 185 -74 231 -113 80 -71 119 -205 99 -339 -23 -145 -89 -231 -246 -321
-72 -41 -201 -91 -273 -106 l-33 -7 0 463 0 462 70 -7 c38 -3 106 -18 152 -32z
m-708 -926 c45 -20 60 -55 64 -153 5 -108 -10 -154 -60 -185 -59 -37 -125 -12
-154 57 -20 46 -18 186 2 229 27 56 91 79 148 52z m597 -523 c149 -39 257 -86
385 -166 162 -102 244 -262 244 -474 0 -251 -112 -392 -412 -521 -83 -36 -276
-94 -310 -94 -17 0 -18 27 -18 640 0 368 4 640 9 640 5 0 51 -11 102 -25z"/>
<path d="M24285 15426 c-68 -17 -139 -50 -184 -85 -39 -31 -94 -124 -105 -176
-3 -16 -13 -186 -21 -377 -24 -535 -5 -895 60 -1165 47 -197 151 -433 241
-550 140 -182 353 -276 654 -290 223 -10 389 42 518 162 l63 58 -6 -39 c-36
-275 -52 -369 -80 -479 -40 -160 -67 -230 -106 -284 -44 -61 -84 -83 -142 -78
-61 5 -95 30 -127 93 -24 46 -25 57 -26 230 0 124 -5 191 -13 213 -31 74 -140
95 -223 42 -68 -43 -105 -123 -120 -262 -20 -188 11 -352 93 -491 78 -133 170
-202 329 -245 92 -25 367 -25 460 0 358 97 546 368 710 1018 119 477 155 885
155 1809 0 682 1 673 -75 768 -62 80 -216 142 -350 142 -103 0 -240 -45 -312
-102 -96 -75 -114 -142 -122 -438 -19 -681 -114 -1192 -271 -1450 -64 -105
-165 -179 -243 -180 -111 -1 -173 99 -212 342 -41 260 -44 317 -45 933 -1 330
-5 616 -9 635 -12 51 -44 110 -80 148 -82 88 -270 133 -411 98z m39 -327 c32
-36 32 -36 5 -269 -20 -170 -18 -776 4 -932 23 -172 23 -184 -12 -218 -38 -39
-71 -46 -116 -25 -51 25 -66 62 -87 215 -43 326 -26 1088 28 1205 33 72 124
84 178 24z m207 -1751 c24 -18 64 -44 89 -58 24 -14 53 -40 63 -58 17 -29 18
-39 8 -72 -32 -108 -155 -103 -285 11 -72 64 -78 131 -14 184 42 35 84 33 139
-7z"/>
<path d="M575 14220 c-51 -16 -102 -67 -243 -244 -185 -232 -238 -307 -283
-400 -55 -113 -54 -151 7 -216 30 -33 72 -62 127 -88 165 -81 1200 -424 1912
-636 545 -162 783 -236 1020 -319 279 -97 353 -125 644 -249 481 -203 735
-298 801 -298 19 0 33 7 40 19 15 28 12 117 -4 150 -17 33 -89 100 -144 135
-22 13 -532 298 -1133 632 -1222 677 -1187 658 -1969 1124 -311 186 -587 349
-615 362 -59 30 -118 40 -160 28z"/>
<path d="M31364 14047 c-28 -14 -280 -162 -560 -330 -787 -471 -829 -495
-2004 -1147 -608 -337 -1130 -628 -1160 -647 -66 -42 -126 -98 -146 -135 -17
-32 -18 -117 -3 -152 10 -21 16 -24 48 -19 92 14 315 98 781 295 487 206 761
300 1675 573 726 217 1774 564 1910 633 75 37 133 82 157 120 41 67 -1 187
-125 355 -126 170 -327 416 -362 443 -53 40 -140 45 -211 11z"/>
<path d="M16782 11915 c-1308 -472 -2752 -914 -3887 -1190 -476 -116 -716
-180 -1045 -280 -215 -65 -442 -144 -456 -158 -8 -8 16 -307 37 -452 42 -291
122 -703 234 -1195 29 -129 56 -255 60 -280 33 -223 123 -712 206 -1120 234
-1158 414 -2169 529 -2968 76 -529 190 -988 330 -1332 l43 -105 286 -282 286
-283 145 61 c416 174 1047 416 1528 584 147 51 332 119 412 150 1424 558 2517
898 3021 940 l76 6 6 907 c4 499 12 1114 17 1367 l10 460 -275 275 c-151 151
-275 281 -275 288 0 15 -54 15 -300 1 -315 -17 -453 -48 -1033 -230 -103 -33
-191 -59 -196 -59 -21 0 -23 329 -6 828 l18 514 -59 59 c-32 32 -56 60 -53 62
2 3 40 12 84 22 119 25 426 102 540 135 55 16 141 36 190 45 307 56 565 154
727 277 37 29 68 59 68 68 0 9 -6 113 -14 231 -21 319 -30 1216 -15 1558 l12
282 -284 287 c-266 269 -297 296 -502 449 -119 90 -220 163 -225 162 -4 0
-112 -38 -240 -84z m337 -546 c-11 -282 -6 -1302 7 -1542 l6 -107 -55 -26
c-71 -32 -209 -67 -395 -99 -81 -15 -203 -41 -272 -60 -69 -19 -244 -64 -390
-100 -146 -36 -357 -97 -470 -136 -113 -39 -344 -113 -515 -165 -393 -121
-670 -226 -898 -341 l-68 -34 5 -62 c3 -34 8 -105 11 -157 6 -100 32 -329 41
-366 6 -22 6 -22 62 -4 976 303 1348 410 1425 410 l29 0 -9 -197 c-19 -464 -5
-1042 34 -1356 8 -70 14 -129 12 -131 -2 -2 -304 -108 -671 -236 l-668 -234 0
-100 c0 -90 22 -334 35 -393 4 -16 13 -23 28 -23 53 0 818 266 1238 430 403
158 820 296 1479 490 356 105 451 130 529 137 l64 6 -6 -154 c-4 -85 -10 -548
-13 -1030 l-7 -877 -66 -7 c-155 -16 -583 -140 -1071 -310 -444 -155 -1294
-473 -1750 -655 -58 -23 -258 -94 -445 -157 -457 -154 -988 -355 -1322 -500
-24 -10 -69 147 -128 442 -43 214 -56 297 -130 805 -102 697 -283 1691 -510
2805 -47 231 -115 596 -151 810 -44 267 -91 504 -149 750 -135 580 -225 1033
-225 1132 0 32 1 32 93 62 155 50 442 126 892 236 237 58 529 130 650 160 244
60 844 229 1260 355 743 225 1547 492 2440 810 28 9 51 17 52 16 1 -1 -2 -135
-8 -297z"/>
<path d="M23792 11915 c-1308 -472 -2752 -914 -3887 -1190 -476 -116 -716
-180 -1045 -280 -215 -65 -442 -144 -456 -158 -8 -8 16 -307 37 -452 42 -291
122 -703 234 -1195 29 -129 56 -255 60 -280 33 -223 123 -712 206 -1120 234
-1158 414 -2169 529 -2968 76 -529 190 -988 330 -1332 l43 -105 286 -282 286
-283 145 61 c416 174 1047 416 1528 584 147 51 332 119 412 150 1424 558 2517
898 3021 940 l76 6 6 907 c4 499 12 1114 17 1367 l10 460 -275 275 c-151 151
-275 281 -275 288 0 15 -54 15 -300 1 -315 -17 -453 -48 -1033 -230 -103 -33
-191 -59 -196 -59 -21 0 -23 329 -6 828 l18 514 -59 59 c-32 32 -56 60 -53 62
2 3 40 12 84 22 119 25 426 102 540 135 55 16 141 36 190 45 307 56 565 154
727 277 37 29 68 59 68 68 0 9 -6 113 -14 231 -21 319 -30 1216 -15 1558 l12
282 -284 287 c-266 269 -297 296 -502 449 -119 90 -220 163 -225 162 -4 0
-112 -38 -240 -84z m337 -546 c-11 -282 -6 -1302 7 -1542 l6 -107 -55 -26
c-71 -32 -209 -67 -395 -99 -81 -15 -203 -41 -272 -60 -69 -19 -244 -64 -390
-100 -146 -36 -357 -97 -470 -136 -113 -39 -344 -113 -515 -165 -393 -121
-670 -226 -898 -341 l-68 -34 5 -62 c3 -34 8 -105 11 -157 6 -100 32 -329 41
-366 6 -22 6 -22 62 -4 976 303 1348 410 1425 410 l29 0 -9 -197 c-19 -464 -5
-1042 34 -1356 8 -70 14 -129 12 -131 -2 -2 -304 -108 -671 -236 l-668 -234 0
-100 c0 -90 22 -334 35 -393 4 -16 13 -23 28 -23 53 0 818 266 1238 430 403
158 820 296 1479 490 356 105 451 130 529 137 l64 6 -6 -154 c-4 -85 -10 -548
-13 -1030 l-7 -877 -66 -7 c-155 -16 -583 -140 -1071 -310 -444 -155 -1294
-473 -1750 -655 -58 -23 -258 -94 -445 -157 -457 -154 -988 -355 -1322 -500
-24 -10 -69 147 -128 442 -43 214 -56 297 -130 805 -102 697 -283 1691 -510
2805 -47 231 -115 596 -151 810 -44 267 -91 504 -149 750 -135 580 -225 1033
-225 1132 0 32 1 32 93 62 155 50 442 126 892 236 237 58 529 130 650 160 244
60 844 229 1260 355 743 225 1547 492 2440 810 28 9 51 17 52 16 1 -1 -2 -135
-8 -297z"/>
<path d="M28215 10689 c-90 -29 -327 -100 -915 -274 -322 -95 -823 -237 -1328
-376 -156 -43 -285 -79 -287 -81 -1 -2 20 -165 46 -363 72 -526 211 -1660 269
-2190 28 -253 75 -683 105 -955 80 -725 222 -2077 239 -2285 21 -242 82 -1188
101 -1560 8 -165 20 -383 25 -485 5 -102 12 -302 15 -445 7 -282 10 -325 27
-325 6 0 133 -124 282 -277 l271 -276 260 72 c1162 324 2342 672 2815 831 113
37 257 82 320 100 305 82 591 180 722 246 l66 33 16 68 c59 253 135 956 270
2498 l53 610 -278 273 c-154 151 -279 280 -279 288 0 8 -3 14 -7 14 -69 0
-302 -25 -377 -41 -138 -28 -340 -97 -476 -161 -63 -31 -146 -69 -185 -86 -38
-17 -185 -85 -325 -150 l-255 -119 -6 761 c-4 537 -17 1093 -42 1891 -20 622
-41 1306 -47 1520 l-11 390 -275 275 c-151 151 -274 280 -274 285 -1 6 -71 60
-158 120 -86 61 -186 131 -222 156 l-65 46 -90 -28z m185 -373 c0 -70 61
-2097 85 -2840 10 -298 15 -781 15 -1370 1 -881 11 -1601 24 -1613 12 -12 549
223 851 372 171 85 441 213 600 285 160 72 342 160 405 195 130 72 239 125
257 125 8 0 11 -10 8 -27 -2 -16 -9 -91 -15 -168 -41 -529 -155 -1795 -191
-2115 -25 -226 -33 -270 -50 -281 -49 -31 -286 -109 -547 -178 -81 -22 -268
-80 -417 -130 -148 -50 -436 -140 -640 -201 -340 -102 -1934 -560 -1949 -560
-3 0 -6 42 -6 93 0 330 -66 1465 -130 2222 -30 352 -161 1599 -341 3235 -70
643 -164 1410 -244 2009 -25 184 -44 335 -43 336 2 1 102 28 223 60 541 143
1434 402 1905 554 102 32 188 59 193 60 4 1 7 -28 7 -63z"/>
<path d="M12310 1921 c-149 -10 -179 -16 -245 -48 -76 -38 -105 -70 -105 -114
0 -30 7 -43 37 -69 194 -171 1229 -338 3003 -485 107 -9 2396 -258 5085 -552
l4890 -537 255 0 c219 -1 264 2 320 17 102 29 165 64 213 116 71 80 91 189 63
346 -9 50 -34 199 -56 332 -45 270 -74 385 -125 489 -103 211 -271 293 -715
346 -81 10 -577 13 -2180 14 -1320 0 -2252 5 -2560 12 -702 18 -1780 31 -2505
32 -1039 1 -2715 37 -4205 90 -390 14 -1027 20 -1170 11z"/>
</g>
</svg>
